<?xml version="1.0" encoding="utf-8"?>
<!-- Generator: Adobe Illustrator 24.0.2, SVG Export Plug-In . SVG Version: 6.00 Build 0)  -->
<svg version="1.1" id="Layer_1" xmlns="http://www.w3.org/2000/svg" xmlns:xlink="http://www.w3.org/1999/xlink" x="0px" y="0px"
	 viewBox="0 0 369.4 76" style="enable-background:new 0 0 369.4 76;" xml:space="preserve">
<style type="text/css">
	.st0{display:none;}
	.st1{display:inline;fill:#25282A;}
	.st2{fill:#25282A;}
</style>
<g class="st0">
	<path class="st1" d="M32.2,1.9c8.5,0,14.2,0.7,17.9,2.6c5.3,2.7,8.5,8.5,8.5,15.8c0,7.5-4.2,13.2-12.3,15.9
		c9.8,1.8,14.8,8.1,14.8,17.6c0,7.2-3.5,13.4-8.9,16.9c-4.6,2.9-10.7,3.8-21.2,3.8H0V1.9L32.2,1.9z M17.3,30.3h13.4
		c7.2,0,10.5-2.5,10.5-7.3c0-4.3-1.9-7.2-10.7-7.2H17.3L17.3,30.3z M17.3,60.3h13.2c9.4,0,12.4-2.9,12.4-7.9s-2.3-8.1-11.8-8.1H17.3
		L17.3,60.3z"/>
	<path class="st1" d="M98.2,74.5H80.3V1.9h17.9V74.5z"/>
	<path class="st1" d="M120,74.5V1.9h17.3V60h31.4v14.5H120z"/>
	<path class="st1" d="M231.2,74.5v-7.1c-4.9,5.7-11,8.6-20.5,8.6c-18.2,0-32.5-14.3-32.5-36.9c0-23.3,14.2-39.1,38.4-39.1
		c13.1,0,24.3,5.5,29.9,19.6l-17.2,6.6c-1.9-7-6.7-10.9-14-10.9c-12.4,0-19.1,9-19.1,22.6c0,15.7,8.2,23.1,19.1,23.1
		c8.2,0,14.9-4.1,15.2-14h-17.2V32.7h33.2v41.8H231.2z"/>
	<path class="st1" d="M286.6,74.5h-17.9V1.9h17.9V74.5z"/>
	<path class="st1" d="M327,1.9c19,33.2,22.5,39.6,25.8,46.6c-0.6-8-0.7-15.5-0.7-46.6h17.3v72.6h-18.6
		c-17.1-29.5-22.2-39.4-25.5-45.9c0.3,7.5,0.4,14.9,0.4,45.9h-17.3V1.9L327,1.9z"/>
</g>
<g id="Layer_2">
	<g>
		<path class="st2" d="M29,7.2c7.5,0,12.4,0.6,15.6,2.2c4.7,2.3,7.5,7.5,7.5,13.8c0,6.6-3.7,11.5-10.8,13.9
			c8.5,1.6,12.9,7.1,12.9,15.4c0,6.3-3.1,11.7-7.8,14.7c-4,2.5-9.3,3.3-18.5,3.3h-27V7.2H29z M15.9,32.1h11.7c6.3,0,9.2-2.2,9.2-6.4
			c0-3.8-1.7-6.3-9.3-6.3H15.9V32.1z M15.9,58.3h11.5c8.2,0,10.9-2.5,10.9-6.9c0-4.4-2-7.1-10.3-7.1h-12V58.3z"/>
		<path class="st2" d="M95.7,70.7H80V18.4h15.6V70.7z"/>
		<path class="st2" d="M95.7,17.2H80v-10h15.6V17.2z"/>
		<path class="st2" d="M287.2,70.7h-15.6V18.4h15.6V70.7z"/>
		<path class="st2" d="M287.2,17.2h-15.6v-10h15.6V17.2z"/>
		<path class="st2" d="M123.7,70.7V7.2h15.1V58h27.4v12.7H123.7z"/>
		<path class="st2" d="M229.8,70.7v-6.2c-4.3,4.9-9.6,7.5-17.9,7.5c-15.9,0-28.4-12.5-28.4-32.3c0-20.4,12.4-34.1,33.5-34.1
			c11.4,0,21.2,4.9,26.1,17.2l-15,5.8c-1.6-6.1-5.8-9.5-12.2-9.5c-10.9,0-16.7,7.9-16.7,19.8c0,13.7,7.2,20.2,16.7,20.2
			c7.2,0,13-3.6,13.3-12.2h-15V34.2h29v36.5H229.8z"/>
		<path class="st2" d="M331.5,7.2c16.6,29,19.7,34.6,22.6,40.7c-0.5-7-0.6-13.6-0.6-40.7h15.1v63.4h-16.3
			c-14.9-25.8-19.4-34.4-22.3-40.1c0.3,6.6,0.4,13,0.4,40.1h-15.1V7.2H331.5z"/>
	</g>
</g>
</svg>
